<?xml version="1.0" standalone="no"?><!DOCTYPE svg PUBLIC "-//W3C//DTD SVG 1.1//EN" "http://www.w3.org/Graphics/SVG/1.1/DTD/svg11.dtd"><svg class="icon" width="200px" height="200.00px" viewBox="0 0 1024 1024" version="1.1" xmlns="http://www.w3.org/2000/svg"><path d="M851.378688 814.870528l0-370.262016-77.13792 0q11.42784 35.997696 11.42784 74.852352 0 71.995392-36.569088 132.84864t-99.422208 96.279552-137.13408 35.426304q-112.564224 0-192.559104-77.423616t-79.99488-187.13088q0-38.854656 11.42784-74.852352l-80.566272 0 0 370.262016q0 14.856192 9.99936 24.855552t24.855552 9.99936l610.818048 0q14.2848 0 24.569856-9.99936t10.285056-24.855552zm-162.275328-304.551936q0-70.852608-51.710976-120.849408t-124.849152-49.9968q-72.566784 0-124.27776 49.9968t-51.710976 120.849408 51.710976 120.849408 124.27776 49.9968q73.138176 0 124.849152-49.9968t51.710976-120.849408zm162.275328-205.70112l0-94.27968q0-15.998976-11.42784-27.712512t-27.998208-11.713536l-99.422208 0q-16.570368 0-27.998208 11.713536t-11.42784 27.712512l0 94.27968q0 16.570368 11.42784 27.998208t27.998208 11.42784l99.422208 0q16.570368 0 27.998208-11.42784t11.42784-27.998208zm99.422208-118.849536l0 652.529664q0 46.282752-33.140736 79.423488t-79.423488 33.140736l-652.529664 0q-46.282752 0-79.423488-33.140736t-33.140736-79.423488l0-652.529664q0-46.282752 33.140736-79.423488t79.423488-33.140736l652.529664 0q46.282752 0 79.423488 33.140736t33.140736 79.423488z" /></svg>