<?xml version="1.0" standalone="no"?><!DOCTYPE svg PUBLIC "-//W3C//DTD SVG 1.1//EN" "http://www.w3.org/Graphics/SVG/1.1/DTD/svg11.dtd"><svg class="icon" width="200px" height="200.00px" viewBox="0 0 1024 1024" version="1.1" xmlns="http://www.w3.org/2000/svg"><path d="M565.704133 985.476615c-7.712659 0-15.389502-0.00921-23.032576-0.019443-15.633049-0.01842-31.314193-0.01842-46.945195 0-52.834322 0.068562-107.469664 0.130983-161.780617-2.927679-59.959603-2.920516-136.920416-14.44499-200.536293-78.059843-63.617923-63.618946-75.141374-140.577712-78.060866-200.540386-3.059686-54.30993-2.992147-108.941178-2.927679-161.774477 0.00921-7.818059 0.019443-15.641235 0.019442-23.474644s-0.00921-15.657608-0.019442-23.474644c-0.064468-52.833299-0.132006-107.46557 2.927679-161.774477 2.919493-59.96165 14.442944-136.920416 78.060866-200.539363 63.618946-63.617923 140.576689-75.141374 200.538339-78.060866 54.30379-3.059686 108.929922-2.992147 161.761174-2.927679 15.644305 0.020466 31.336706 0.020466 46.979988 0 52.828182-0.062422 107.455337-0.130983 161.760151 2.927679 59.96165 2.920516 136.920416 14.442944 200.539362 78.060866 63.617923 63.618946 75.141374 140.578736 78.060867 200.540386 3.058662 54.308907 2.992147 108.939131 2.926655 161.770384-0.00921 7.818059-0.019443 15.643282-0.019443 23.477714s0.010233 15.659655 0.019443 23.476691c0.064468 52.832276 0.132006 107.4625-2.926655 161.771407-2.920516 59.96165-14.442944 136.922463-78.060867 200.541409-63.615876 63.614853-140.576689 75.140351-200.536293 78.059843-46.452985 2.617617-93.149517 2.947122-138.74804 2.947122z m-46.505174-40.97011c7.849782 0 15.689331 0.010233 23.52274 0.019442 52.273551 0.069585 106.339934 0.130983 159.50069-2.867304l0.159636-0.009209c79.224366-3.847631 131.161249-23.623024 173.661202-66.124 42.500976-42.499953 62.276369-94.435813 66.125023-173.662225l0.00921-0.158613c2.997264-53.15871 2.929726-107.216907 2.86628-159.496597-0.00921-7.833409-0.019443-15.676028-0.019442-23.526833 0-7.851828 0.010233-15.692401 0.019442-23.527856 0.064468-52.278667 0.130983-106.337887-2.86628-159.496597l-0.00921-0.158613c-3.848655-79.225389-23.624047-131.162272-66.125023-173.663248-42.49893-42.499953-94.435813-62.275345-173.662225-66.124l-0.158613-0.008186c-53.152571-2.997264-107.206674-2.928702-159.484317-2.867304-15.677051 0.020466-31.403221 0.020466-47.079249 0-52.272527-0.059352-106.328677-0.12996-159.484317 2.867304l-0.158613 0.008186c-79.225389 3.848655-131.162272 23.624047-173.663248 66.124-42.499953 42.499953-62.275345 94.436836-66.124 173.663248l-0.008186 0.158613c-2.998287 53.159734-2.931772 107.218954-2.867304 159.498644 0.00921 7.833409 0.019443 15.673981 0.019442 23.524786s-0.00921 15.691377-0.019442 23.524786c-0.064468 52.27969-0.130983 106.33891 2.867304 159.498644l0.008186 0.158612c3.848655 79.226412 23.624047 131.163295 66.124 173.662225 42.500976 42.500976 94.437859 62.276369 173.662225 66.124l0.159636 0.00921c53.160757 2.998287 107.22714 2.937912 159.50069 2.867304 7.834432-0.008186 15.673981-0.01842 23.523763-0.018419z m0-176.367847c-66.721611 0-129.389906-25.923416-176.461991-72.995501s-72.995501-109.74038-72.995501-176.461991 25.923416-129.389906 72.995501-176.461991c47.072085-47.072085 109.74038-72.995501 176.461991-72.995501 66.721611 0 129.389906 25.923416 176.461991 72.995501 47.072085 47.072085 72.995501 109.74038 72.995501 176.461991s-25.923416 129.389906-72.995501 176.461991-109.74038 72.995501-176.461991 72.995501z m0-457.983759c-114.980731 0-208.525244 93.544513-208.525244 208.525244 0 114.980731 93.544513 208.525244 208.525244 208.525244s208.525244-93.544513 208.525244-208.525244c0-114.980731-93.544513-208.525244-208.525244-208.525244z m238.226706 44.223201c-40.761356 0-73.922616-33.162284-73.922616-73.92364s33.161261-73.922616 73.922616-73.922617 73.922616 33.161261 73.922617 73.922617-33.161261 73.92364-73.922617 73.92364z m0-106.914009c-18.190291 0-32.990369 14.799054-32.990368 32.990369s14.800078 32.991392 32.990368 32.991392 32.990369-14.800078 32.990369-32.991392c0-18.499329-14.491039-32.990369-32.990369-32.990369z" fill="#f4ea2a" /></svg>