<?xml version="1.0" standalone="no"?><!DOCTYPE svg PUBLIC "-//W3C//DTD SVG 1.1//EN" "http://www.w3.org/Graphics/SVG/1.1/DTD/svg11.dtd"><svg class="icon" width="200px" height="200.00px" viewBox="0 0 1024 1024" version="1.1" xmlns="http://www.w3.org/2000/svg"><path d="M981.333333 512 725.333333 512 725.333333 426.666667 869.973333 256 725.333333 256 725.333333 170.666667 981.333333 170.666667 981.333333 256 837.12 426.666667 981.333333 426.666667 981.333333 512M640 682.666667 384 682.666667 384 597.333333 528.64 426.666667 384 426.666667 384 341.333333 640 341.333333 640 426.666667 495.786667 597.333333 640 597.333333 640 682.666667M298.666667 853.333333 42.666667 853.333333 42.666667 768 187.306667 597.333333 42.666667 597.333333 42.666667 512 298.666667 512 298.666667 597.333333 154.453333 768 298.666667 768 298.666667 853.333333Z" fill="#707070" /></svg>