<?xml version="1.0" standalone="no"?><!DOCTYPE svg PUBLIC "-//W3C//DTD SVG 1.1//EN" "http://www.w3.org/Graphics/SVG/1.1/DTD/svg11.dtd"><svg class="icon" width="200px" height="200.00px" viewBox="0 0 1024 1024" version="1.1" xmlns="http://www.w3.org/2000/svg"><path d="M430.848 867.114667c-169.685333 16.682667-316.330667-59.989333-327.338667-171.52-11.050667-111.317333 117.717333-215.338667 287.573334-232.149334 169.770667-16.810667 316.288 59.904 327.296 171.434667 11.050667 110.933333-117.717333 215.424-287.445334 232.064l-0.085333 0.170667zM386.133333 734.677333c-16.384 26.282667-51.541333 37.717333-78.037333 25.685334-26.112-11.904-33.834667-42.282667-17.322667-67.968 16.170667-25.386667 50.176-36.736 76.501334-25.642667 26.538667 11.221333 34.986667 41.472 18.858666 67.925333z m54.186667-69.418666c-6.016 10.112-19.157333 15.061333-29.397333 10.794666-10.069333-3.84-13.354667-15.402667-7.552-25.002666 5.888-9.685333 18.602667-14.762667 28.672-10.24 10.197333 3.84 13.44 15.36 7.68 25.642666l0.597333-1.194666z m7.509333-116.010667c-80.768-21.034667-172.074667 19.2-207.232 90.368-35.669333 72.704-1.109333 153.216 80.469334 179.626667 84.608 27.306667 184.234667-14.549333 218.965333-92.970667 34.133333-76.501333-8.576-155.392-92.202667-177.024z m322.688-52.224c-14.762667-4.48-24.32-7.68-17.28-26.24 16-41.685333 17.92-76.970667 0-102.570667-33.322667-47.445333-124.373333-44.928-228.864-1.28 0 0-32.682667 14.122667-24.362666-11.562666 16.042667-51.925333 13.44-94.890667-11.52-119.850667-57.088-57.045333-207.744 1.92-336.554667 131.413333C55.850667 463.786667 0 566.314667 0 654.848c0 169.856 217.557333 272.853333 430.336 272.853333 278.869333 0 464.554667-162.176 464.554667-290.986666 0-77.738667-66.005333-121.770667-124.373334-140.117334v0.426667z m81.408-217.258667a132.309333 132.309333 0 0 0-126.293333-41.045333 33.536 33.536 0 0 0-26.282667 39.765333 33.706667 33.706667 0 0 0 39.765334 25.685334 64.512 64.512 0 0 1 61.525333 19.84c16.042667 17.962667 19.882667 41.685333 13.482667 62.848a33.536 33.536 0 0 0 21.76 42.325333 34.688 34.688 0 0 0 42.325333-21.845333 132.608 132.608 0 0 0-27.562667-129.493334l1.28 1.92z m103.168-93.653333c-67.242667-74.965333-166.613333-103.210667-258.304-83.968a38.826667 38.826667 0 0 0-30.122666 46.122667 38.826667 38.826667 0 0 0 46.165333 30.165333 192 192 0 0 1 183.296 59.008 193.408 193.408 0 0 1 40.405333 188.416 38.826667 38.826667 0 0 0 25.002667 49.365333c20.437333 7.04 42.282667-4.437333 49.365333-25.002666a272.512 272.512 0 0 0-57.088-266.026667l1.28 1.92z" /></svg>