<?xml version="1.0" standalone="no"?><!DOCTYPE svg PUBLIC "-//W3C//DTD SVG 1.1//EN" "http://www.w3.org/Graphics/SVG/1.1/DTD/svg11.dtd"><svg class="icon" width="200px" height="200.00px" viewBox="0 0 1024 1024" version="1.1" xmlns="http://www.w3.org/2000/svg"><path d="M691.2 456c17.6-32 28.8-73.6 1.6-102.4-25.6-25.6-64-12.8-92.8 3.2 3.2-27.2 1.6-59.2-14.4-81.6-11.2-19.2-28.8-30.4-51.2-33.6-72-12.8-108.8 65.6-129.6 107.2-3.2 6.4-6.4 12.8-9.6 17.6-128 20.8-219.2 110.4-219.2 216 0 121.6 123.2 220.8 273.6 220.8 148.8 0 270.4-96 273.6-216 8-16 27.2-62.4 11.2-94.4-8-19.2-27.2-30.4-43.2-36.8z m-4.8 116.8l-1.6 9.6c0 99.2-105.6 180.8-233.6 180.8-129.6 0-233.6-81.6-233.6-180.8 0-86.4 80-161.6 192-177.6 14.4-1.6 20.8-14.4 32-38.4 20.8-43.2 44.8-84.8 80-84.8h8c11.2 1.6 19.2 6.4 24 16 17.6 27.2 4.8 83.2 0 102.4l33.6 20.8c24-24 67.2-49.6 80-36.8 17.6 17.6-11.2 62.4-20.8 73.6l12.8 32c11.2 1.6 36.8 9.6 44.8 24 1.6 8-8 40-17.6 59.2z" fill="#f4ea2a" /><path d="M424 457.6c-81.6 0-148.8 59.2-148.8 132.8s67.2 132.8 148.8 132.8c81.6 0 148.8-59.2 148.8-132.8s-67.2-132.8-148.8-132.8z m0 224c-59.2 0-108.8-41.6-108.8-92.8s48-92.8 108.8-92.8 108.8 41.6 108.8 92.8-49.6 92.8-108.8 92.8zM716.8 268.8l-17.6 36.8c32 14.4 52.8 48 52.8 83.2h40c0-51.2-28.8-97.6-75.2-120zM739.2 195.2l-14.4 36.8c64 25.6 105.6 86.4 105.6 155.2h40c-1.6-84.8-52.8-160-131.2-192z" fill="#f4ea2a" /></svg>