<?xml version="1.0" standalone="no"?><!DOCTYPE svg PUBLIC "-//W3C//DTD SVG 1.1//EN" "http://www.w3.org/Graphics/SVG/1.1/DTD/svg11.dtd"><svg class="icon" width="200px" height="200.00px" viewBox="0 0 1024 1024" version="1.1" xmlns="http://www.w3.org/2000/svg"><path d="M836.878814 727.504312H182.553634c-61.584655 0-111.688483-50.102804-111.688483-111.687459V364.461196c0-61.584655 50.103828-111.688483 111.688483-111.688483h654.32518c61.584655 0 111.687459 50.102804 111.687459 111.688483v251.35668c0 61.584655-50.102804 111.686435-111.687459 111.686436zM182.553634 280.649015c-46.214088 0-83.812181 37.598093-83.812181 83.812181v251.35668c0 46.214088 37.598093 83.812181 83.812181 83.812181h654.32518c46.214088 0 83.812181-37.599117 83.812181-83.812181V364.461196c0-46.214088-37.599117-83.812181-83.812181-83.812181H182.553634z" fill="#f4ea2a" /><path d="M386.012959 677.388197a13.939175 13.939175 0 0 1-13.938151-13.937128V316.823908a13.939175 13.939175 0 0 1 20.906714-12.070584l300.187819 173.314092a13.938151 13.938151 0 0 1 0 24.141169L392.981522 675.521654a13.922793 13.922793 0 0 1-6.968563 1.866543z m13.93815-336.423121v298.344825l258.373367-149.170877-258.373367-149.173948z" fill="#f4ea2a" /></svg>